<mxfile host="app.diagrams.net" modified="2023-05-03T13:31:16.761Z" agent="Mozilla/5.0 (Windows NT 10.0; Win64; x64) AppleWebKit/537.36 (KHTML, like Gecko) Chrome/113.0.0.0 Safari/537.36" etag="8HQO3eNyF0mG9i_kZjia" version="21.2.6" type="device" pages="3">
  <diagram name="Lv2-3" id="_M-2xF81Z97StXX9Xhtc">
    <mxGraphModel dx="1400" dy="721" grid="1" gridSize="10" guides="1" tooltips="1" connect="1" arrows="1" fold="1" page="1" pageScale="1" pageWidth="827" pageHeight="1169" math="0" shadow="0">
      <root>
        <mxCell id="0" />
        <mxCell id="1" parent="0" />
        <mxCell id="rX6alPP_R84iCfiomxFw-1" value="" style="rounded=0;whiteSpace=wrap;html=1;" parent="1" vertex="1">
          <mxGeometry x="10" y="50" width="1140" height="630" as="geometry" />
        </mxCell>
        <mxCell id="rX6alPP_R84iCfiomxFw-9" value="" style="rounded=0;whiteSpace=wrap;html=1;" parent="1" vertex="1">
          <mxGeometry x="30" y="100" width="1100" height="130" as="geometry" />
        </mxCell>
        <mxCell id="Ylp3q53HkIbgLGMi-mtZ-3" style="edgeStyle=orthogonalEdgeStyle;rounded=0;orthogonalLoop=1;jettySize=auto;html=1;exitX=0.5;exitY=1;exitDx=0;exitDy=0;entryX=0.5;entryY=0;entryDx=0;entryDy=0;" edge="1" parent="1" source="rX6alPP_R84iCfiomxFw-12" target="rX6alPP_R84iCfiomxFw-14">
          <mxGeometry relative="1" as="geometry">
            <mxPoint x="200" y="330" as="targetPoint" />
          </mxGeometry>
        </mxCell>
        <mxCell id="rX6alPP_R84iCfiomxFw-12" value="CATALOGO" style="ellipse;whiteSpace=wrap;html=1;" parent="1" vertex="1">
          <mxGeometry x="220" y="160" width="90" height="60" as="geometry" />
        </mxCell>
        <mxCell id="Ylp3q53HkIbgLGMi-mtZ-1" style="edgeStyle=orthogonalEdgeStyle;rounded=0;orthogonalLoop=1;jettySize=auto;html=1;exitX=0.5;exitY=1;exitDx=0;exitDy=0;entryX=0.5;entryY=0;entryDx=0;entryDy=0;" edge="1" parent="1" source="rX6alPP_R84iCfiomxFw-13" target="rX6alPP_R84iCfiomxFw-14">
          <mxGeometry relative="1" as="geometry" />
        </mxCell>
        <mxCell id="rX6alPP_R84iCfiomxFw-13" value="HOME" style="ellipse;whiteSpace=wrap;html=1;" parent="1" vertex="1">
          <mxGeometry x="80" y="160" width="90" height="60" as="geometry" />
        </mxCell>
        <mxCell id="rX6alPP_R84iCfiomxFw-14" value="&lt;b&gt;Visualizzazione delle promozioni offerte dalle aziende tramite ricerca&lt;/b&gt;&lt;br&gt;&lt;br&gt;&lt;u&gt;Scarica coupon&lt;/u&gt;" style="rounded=0;whiteSpace=wrap;html=1;" parent="1" vertex="1">
          <mxGeometry x="60" y="340" width="290" height="100" as="geometry" />
        </mxCell>
        <mxCell id="Ylp3q53HkIbgLGMi-mtZ-4" style="edgeStyle=orthogonalEdgeStyle;rounded=0;orthogonalLoop=1;jettySize=auto;html=1;exitX=1;exitY=0.5;exitDx=0;exitDy=0;entryX=1;entryY=0.5;entryDx=0;entryDy=0;" edge="1" parent="1" source="rX6alPP_R84iCfiomxFw-16" target="rX6alPP_R84iCfiomxFw-14">
          <mxGeometry relative="1" as="geometry">
            <Array as="points">
              <mxPoint x="390" y="530" />
              <mxPoint x="390" y="390" />
            </Array>
          </mxGeometry>
        </mxCell>
        <mxCell id="rX6alPP_R84iCfiomxFw-16" value="&lt;b&gt;Visualizzazione coupon&lt;/b&gt;&lt;br&gt;&lt;br&gt;&lt;u&gt;indietro&lt;/u&gt;" style="rounded=0;whiteSpace=wrap;html=1;" parent="1" vertex="1">
          <mxGeometry x="120" y="500" width="170" height="60" as="geometry" />
        </mxCell>
        <mxCell id="rX6alPP_R84iCfiomxFw-17" value="" style="endArrow=classic;html=1;rounded=0;exitX=0.5;exitY=1;exitDx=0;exitDy=0;" parent="1" source="rX6alPP_R84iCfiomxFw-14" target="rX6alPP_R84iCfiomxFw-16" edge="1">
          <mxGeometry width="50" height="50" relative="1" as="geometry">
            <mxPoint x="400" y="390" as="sourcePoint" />
            <mxPoint x="450" y="340" as="targetPoint" />
          </mxGeometry>
        </mxCell>
        <mxCell id="rX6alPP_R84iCfiomxFw-19" value="FAQ" style="ellipse;whiteSpace=wrap;html=1;" parent="1" vertex="1">
          <mxGeometry x="430" y="160" width="90" height="60" as="geometry" />
        </mxCell>
        <mxCell id="rX6alPP_R84iCfiomxFw-20" value="CONTATTACI" style="ellipse;whiteSpace=wrap;html=1;" parent="1" vertex="1">
          <mxGeometry x="610" y="160" width="90" height="60" as="geometry" />
        </mxCell>
        <mxCell id="rX6alPP_R84iCfiomxFw-21" value="LOGOUT" style="ellipse;whiteSpace=wrap;html=1;" parent="1" vertex="1">
          <mxGeometry x="960" y="160" width="90" height="60" as="geometry" />
        </mxCell>
        <mxCell id="rX6alPP_R84iCfiomxFw-22" value="AREA RISERVATA" style="ellipse;whiteSpace=wrap;html=1;" parent="1" vertex="1">
          <mxGeometry x="780" y="160" width="110" height="60" as="geometry" />
        </mxCell>
        <mxCell id="rX6alPP_R84iCfiomxFw-23" value="&lt;b&gt;Visualizza i tuoi dati&lt;/b&gt;&lt;br&gt;&lt;br&gt;&lt;u&gt;Modifica&lt;/u&gt;" style="rounded=0;whiteSpace=wrap;html=1;" parent="1" vertex="1">
          <mxGeometry x="740" y="310" width="190" height="80" as="geometry" />
        </mxCell>
        <mxCell id="rX6alPP_R84iCfiomxFw-24" value="&lt;b&gt;Form modifica dati utente&lt;/b&gt;&lt;br&gt;&lt;br&gt;&lt;u&gt;Conferma&lt;br&gt;&lt;/u&gt;&lt;br&gt;&lt;u&gt;indietro&lt;/u&gt;" style="rounded=0;whiteSpace=wrap;html=1;" parent="1" vertex="1">
          <mxGeometry x="620" y="450" width="160" height="90" as="geometry" />
        </mxCell>
        <mxCell id="rX6alPP_R84iCfiomxFw-25" value="&lt;b&gt;Form di gestione delle promozioni&lt;/b&gt;&lt;br&gt;&lt;br&gt;&lt;u style=&quot;&quot;&gt;Conferma&lt;br&gt;&lt;/u&gt;&lt;br&gt;&lt;u&gt;Indietro&lt;/u&gt;" style="rounded=0;whiteSpace=wrap;html=1;" parent="1" vertex="1">
          <mxGeometry x="870" y="450" width="190" height="100" as="geometry" />
        </mxCell>
        <mxCell id="rX6alPP_R84iCfiomxFw-26" value="" style="endArrow=classic;html=1;rounded=0;exitX=0.5;exitY=1;exitDx=0;exitDy=0;" parent="1" source="rX6alPP_R84iCfiomxFw-22" target="rX6alPP_R84iCfiomxFw-23" edge="1">
          <mxGeometry width="50" height="50" relative="1" as="geometry">
            <mxPoint x="400" y="290" as="sourcePoint" />
            <mxPoint x="450" y="240" as="targetPoint" />
          </mxGeometry>
        </mxCell>
        <mxCell id="rX6alPP_R84iCfiomxFw-27" value="" style="endArrow=classic;html=1;rounded=0;exitX=0.25;exitY=1;exitDx=0;exitDy=0;entryX=0.5;entryY=0;entryDx=0;entryDy=0;" parent="1" source="rX6alPP_R84iCfiomxFw-23" target="rX6alPP_R84iCfiomxFw-24" edge="1">
          <mxGeometry width="50" height="50" relative="1" as="geometry">
            <mxPoint x="400" y="290" as="sourcePoint" />
            <mxPoint x="450" y="240" as="targetPoint" />
            <Array as="points">
              <mxPoint x="788" y="420" />
              <mxPoint x="700" y="420" />
            </Array>
          </mxGeometry>
        </mxCell>
        <mxCell id="rX6alPP_R84iCfiomxFw-28" value="" style="endArrow=classic;html=1;rounded=0;exitX=0.75;exitY=1;exitDx=0;exitDy=0;entryX=0.5;entryY=0;entryDx=0;entryDy=0;" parent="1" source="rX6alPP_R84iCfiomxFw-23" target="rX6alPP_R84iCfiomxFw-25" edge="1">
          <mxGeometry width="50" height="50" relative="1" as="geometry">
            <mxPoint x="400" y="290" as="sourcePoint" />
            <mxPoint x="450" y="240" as="targetPoint" />
            <Array as="points">
              <mxPoint x="883" y="420" />
              <mxPoint x="965" y="420" />
            </Array>
          </mxGeometry>
        </mxCell>
        <mxCell id="rX6alPP_R84iCfiomxFw-30" value="" style="endArrow=classic;html=1;rounded=0;exitX=0;exitY=0.5;exitDx=0;exitDy=0;entryX=0;entryY=0.5;entryDx=0;entryDy=0;" parent="1" source="rX6alPP_R84iCfiomxFw-24" target="rX6alPP_R84iCfiomxFw-23" edge="1">
          <mxGeometry width="50" height="50" relative="1" as="geometry">
            <mxPoint x="400" y="290" as="sourcePoint" />
            <mxPoint x="830" y="270" as="targetPoint" />
            <Array as="points">
              <mxPoint x="590" y="495" />
              <mxPoint x="590" y="350" />
            </Array>
          </mxGeometry>
        </mxCell>
        <mxCell id="rX6alPP_R84iCfiomxFw-31" value="" style="endArrow=classic;html=1;rounded=0;exitX=1;exitY=0.5;exitDx=0;exitDy=0;entryX=1;entryY=0.5;entryDx=0;entryDy=0;" parent="1" source="rX6alPP_R84iCfiomxFw-25" target="rX6alPP_R84iCfiomxFw-23" edge="1">
          <mxGeometry width="50" height="50" relative="1" as="geometry">
            <mxPoint x="400" y="290" as="sourcePoint" />
            <mxPoint x="840" y="270" as="targetPoint" />
            <Array as="points">
              <mxPoint x="1090" y="500" />
              <mxPoint x="1090" y="350" />
            </Array>
          </mxGeometry>
        </mxCell>
        <mxCell id="rX6alPP_R84iCfiomxFw-32" value="Homepage livello 2" style="text;html=1;strokeColor=none;fillColor=none;align=center;verticalAlign=middle;whiteSpace=wrap;rounded=0;" parent="1" vertex="1">
          <mxGeometry x="515" y="110" width="110" height="30" as="geometry" />
        </mxCell>
        <mxCell id="rX6alPP_R84iCfiomxFw-33" value="" style="rounded=0;whiteSpace=wrap;html=1;" parent="1" vertex="1">
          <mxGeometry x="10" y="730" width="1140" height="630" as="geometry" />
        </mxCell>
        <mxCell id="rX6alPP_R84iCfiomxFw-34" value="" style="rounded=0;whiteSpace=wrap;html=1;" parent="1" vertex="1">
          <mxGeometry x="30" y="790" width="1100" height="130" as="geometry" />
        </mxCell>
        <mxCell id="rX6alPP_R84iCfiomxFw-35" value="HOME" style="ellipse;whiteSpace=wrap;html=1;" parent="1" vertex="1">
          <mxGeometry x="70" y="850" width="90" height="60" as="geometry" />
        </mxCell>
        <mxCell id="rX6alPP_R84iCfiomxFw-36" value="CATALOGO" style="ellipse;whiteSpace=wrap;html=1;" parent="1" vertex="1">
          <mxGeometry x="240" y="850" width="90" height="60" as="geometry" />
        </mxCell>
        <mxCell id="rX6alPP_R84iCfiomxFw-37" value="FAQ" style="ellipse;whiteSpace=wrap;html=1;" parent="1" vertex="1">
          <mxGeometry x="430" y="850" width="90" height="60" as="geometry" />
        </mxCell>
        <mxCell id="rX6alPP_R84iCfiomxFw-38" value="CONTATTACI" style="ellipse;whiteSpace=wrap;html=1;" parent="1" vertex="1">
          <mxGeometry x="610" y="850" width="90" height="60" as="geometry" />
        </mxCell>
        <mxCell id="rX6alPP_R84iCfiomxFw-39" value="AREA RISERVATA" style="ellipse;whiteSpace=wrap;html=1;" parent="1" vertex="1">
          <mxGeometry x="780" y="850" width="110" height="60" as="geometry" />
        </mxCell>
        <mxCell id="rX6alPP_R84iCfiomxFw-40" value="LOGOUT" style="ellipse;whiteSpace=wrap;html=1;" parent="1" vertex="1">
          <mxGeometry x="1010" y="850" width="90" height="60" as="geometry" />
        </mxCell>
        <mxCell id="rX6alPP_R84iCfiomxFw-41" value="Homepage livello 3" style="text;html=1;strokeColor=none;fillColor=none;align=center;verticalAlign=middle;whiteSpace=wrap;rounded=0;" parent="1" vertex="1">
          <mxGeometry x="515" y="800" width="110" height="30" as="geometry" />
        </mxCell>
        <mxCell id="rX6alPP_R84iCfiomxFw-42" value="&lt;b&gt;Visualizzazione delle promozioni offerte dalle aziende tramite ricerca&lt;/b&gt;&lt;br&gt;&lt;br&gt;&lt;u&gt;Scarica coupon&lt;/u&gt;" style="rounded=0;whiteSpace=wrap;html=1;" parent="1" vertex="1">
          <mxGeometry x="60" y="1020" width="290" height="100" as="geometry" />
        </mxCell>
        <mxCell id="rX6alPP_R84iCfiomxFw-43" value="&lt;b&gt;Visualizzazione coupon&lt;/b&gt;&lt;br&gt;&lt;br&gt;&lt;u&gt;indietro&lt;/u&gt;" style="rounded=0;whiteSpace=wrap;html=1;" parent="1" vertex="1">
          <mxGeometry x="120" y="1190" width="170" height="60" as="geometry" />
        </mxCell>
        <mxCell id="rX6alPP_R84iCfiomxFw-44" value="" style="endArrow=classic;html=1;rounded=0;exitX=0.5;exitY=1;exitDx=0;exitDy=0;entryX=0.5;entryY=0;entryDx=0;entryDy=0;" parent="1" source="rX6alPP_R84iCfiomxFw-36" target="rX6alPP_R84iCfiomxFw-42" edge="1">
          <mxGeometry width="50" height="50" relative="1" as="geometry">
            <mxPoint x="400" y="970" as="sourcePoint" />
            <mxPoint x="450" y="920" as="targetPoint" />
            <Array as="points">
              <mxPoint x="285" y="970" />
              <mxPoint x="205" y="970" />
            </Array>
          </mxGeometry>
        </mxCell>
        <mxCell id="rX6alPP_R84iCfiomxFw-45" value="" style="endArrow=classic;html=1;rounded=0;exitX=0.5;exitY=1;exitDx=0;exitDy=0;" parent="1" source="rX6alPP_R84iCfiomxFw-42" target="rX6alPP_R84iCfiomxFw-43" edge="1">
          <mxGeometry width="50" height="50" relative="1" as="geometry">
            <mxPoint x="400" y="970" as="sourcePoint" />
            <mxPoint x="450" y="920" as="targetPoint" />
          </mxGeometry>
        </mxCell>
        <mxCell id="rX6alPP_R84iCfiomxFw-46" value="" style="endArrow=classic;html=1;rounded=0;exitX=1;exitY=0.5;exitDx=0;exitDy=0;entryX=1;entryY=0.5;entryDx=0;entryDy=0;" parent="1" source="rX6alPP_R84iCfiomxFw-43" target="rX6alPP_R84iCfiomxFw-42" edge="1">
          <mxGeometry width="50" height="50" relative="1" as="geometry">
            <mxPoint x="400" y="970" as="sourcePoint" />
            <mxPoint x="205" y="990" as="targetPoint" />
            <Array as="points">
              <mxPoint x="370" y="1220" />
              <mxPoint x="370" y="1070" />
            </Array>
          </mxGeometry>
        </mxCell>
        <mxCell id="rX6alPP_R84iCfiomxFw-47" value="&lt;b&gt;Visualizza i dati del sito&lt;/b&gt;&lt;br&gt;&lt;br&gt;&lt;u&gt;Modifica&lt;/u&gt;" style="rounded=0;whiteSpace=wrap;html=1;" parent="1" vertex="1">
          <mxGeometry x="760" y="950" width="150" height="70" as="geometry" />
        </mxCell>
        <mxCell id="rX6alPP_R84iCfiomxFw-48" value="" style="endArrow=classic;html=1;rounded=0;exitX=0.5;exitY=1;exitDx=0;exitDy=0;entryX=0.5;entryY=0;entryDx=0;entryDy=0;" parent="1" source="rX6alPP_R84iCfiomxFw-39" target="rX6alPP_R84iCfiomxFw-47" edge="1">
          <mxGeometry width="50" height="50" relative="1" as="geometry">
            <mxPoint x="400" y="970" as="sourcePoint" />
            <mxPoint x="450" y="920" as="targetPoint" />
          </mxGeometry>
        </mxCell>
        <mxCell id="rX6alPP_R84iCfiomxFw-49" value="&lt;b&gt;Form di gestione delle aziende&lt;/b&gt;&lt;br&gt;&lt;br&gt;&lt;u&gt;Conferma&lt;br&gt;&lt;/u&gt;&lt;br&gt;&lt;u&gt;Indietro&lt;/u&gt;" style="rounded=0;whiteSpace=wrap;html=1;" parent="1" vertex="1">
          <mxGeometry x="520" y="1040" width="120" height="90" as="geometry" />
        </mxCell>
        <mxCell id="rX6alPP_R84iCfiomxFw-50" value="&lt;b&gt;Form di cancellazione degli utenti&lt;/b&gt;&lt;br&gt;&lt;br&gt;&lt;u&gt;Conferma&lt;br&gt;&lt;/u&gt;&lt;br&gt;&lt;u&gt;Indietro&lt;/u&gt;" style="rounded=0;whiteSpace=wrap;html=1;" parent="1" vertex="1">
          <mxGeometry x="580" y="1160" width="120" height="110" as="geometry" />
        </mxCell>
        <mxCell id="rX6alPP_R84iCfiomxFw-51" value="&lt;b&gt;Form di gestione dei membri dello staff&lt;/b&gt;&lt;br&gt;&lt;br&gt;&lt;u&gt;Conferma&lt;br&gt;&lt;/u&gt;&lt;br&gt;&lt;u&gt;Indietro&lt;/u&gt;" style="rounded=0;whiteSpace=wrap;html=1;" parent="1" vertex="1">
          <mxGeometry x="740" y="1160" width="130" height="110" as="geometry" />
        </mxCell>
        <mxCell id="rX6alPP_R84iCfiomxFw-52" value="&lt;b&gt;Form per la generazione di statistiche&lt;/b&gt;&lt;br&gt;&lt;br&gt;&lt;u&gt;Indietro&lt;/u&gt;" style="rounded=0;whiteSpace=wrap;html=1;" parent="1" vertex="1">
          <mxGeometry x="905" y="1160" width="120" height="110" as="geometry" />
        </mxCell>
        <mxCell id="rX6alPP_R84iCfiomxFw-53" value="&lt;b&gt;Form per la gestione delle FAQ&lt;/b&gt;&lt;br&gt;&lt;br&gt;&lt;u&gt;Conferma&lt;br&gt;&lt;/u&gt;&lt;br&gt;&lt;u&gt;Indietro&lt;/u&gt;" style="rounded=0;whiteSpace=wrap;html=1;" parent="1" vertex="1">
          <mxGeometry x="960" y="1040" width="120" height="90" as="geometry" />
        </mxCell>
        <mxCell id="rX6alPP_R84iCfiomxFw-54" value="" style="endArrow=classic;html=1;rounded=0;exitX=0;exitY=1;exitDx=0;exitDy=0;entryX=0.5;entryY=0;entryDx=0;entryDy=0;" parent="1" source="rX6alPP_R84iCfiomxFw-47" target="rX6alPP_R84iCfiomxFw-49" edge="1">
          <mxGeometry width="50" height="50" relative="1" as="geometry">
            <mxPoint x="400" y="900" as="sourcePoint" />
            <mxPoint x="450" y="850" as="targetPoint" />
            <Array as="points">
              <mxPoint x="580" y="1020" />
            </Array>
          </mxGeometry>
        </mxCell>
        <mxCell id="rX6alPP_R84iCfiomxFw-55" value="" style="endArrow=classic;html=1;rounded=0;exitX=1;exitY=1;exitDx=0;exitDy=0;entryX=0.5;entryY=0;entryDx=0;entryDy=0;" parent="1" source="rX6alPP_R84iCfiomxFw-47" target="rX6alPP_R84iCfiomxFw-53" edge="1">
          <mxGeometry width="50" height="50" relative="1" as="geometry">
            <mxPoint x="400" y="900" as="sourcePoint" />
            <mxPoint x="450" y="850" as="targetPoint" />
            <Array as="points">
              <mxPoint x="1020" y="1020" />
            </Array>
          </mxGeometry>
        </mxCell>
        <mxCell id="rX6alPP_R84iCfiomxFw-56" value="" style="endArrow=classic;html=1;rounded=0;exitX=0.25;exitY=1;exitDx=0;exitDy=0;entryX=0.5;entryY=0;entryDx=0;entryDy=0;" parent="1" source="rX6alPP_R84iCfiomxFw-47" target="rX6alPP_R84iCfiomxFw-50" edge="1">
          <mxGeometry width="50" height="50" relative="1" as="geometry">
            <mxPoint x="400" y="900" as="sourcePoint" />
            <mxPoint x="450" y="850" as="targetPoint" />
            <Array as="points">
              <mxPoint x="798" y="1060" />
              <mxPoint x="798" y="1140" />
              <mxPoint x="670" y="1140" />
              <mxPoint x="640" y="1140" />
            </Array>
          </mxGeometry>
        </mxCell>
        <mxCell id="rX6alPP_R84iCfiomxFw-57" value="" style="endArrow=classic;html=1;rounded=0;exitX=0.5;exitY=1;exitDx=0;exitDy=0;entryX=0.5;entryY=0;entryDx=0;entryDy=0;" parent="1" source="rX6alPP_R84iCfiomxFw-47" target="rX6alPP_R84iCfiomxFw-51" edge="1">
          <mxGeometry width="50" height="50" relative="1" as="geometry">
            <mxPoint x="400" y="900" as="sourcePoint" />
            <mxPoint x="450" y="850" as="targetPoint" />
            <Array as="points">
              <mxPoint x="835" y="1090" />
              <mxPoint x="835" y="1140" />
              <mxPoint x="805" y="1140" />
            </Array>
          </mxGeometry>
        </mxCell>
        <mxCell id="rX6alPP_R84iCfiomxFw-58" value="" style="endArrow=classic;html=1;rounded=0;exitX=0.75;exitY=1;exitDx=0;exitDy=0;entryX=0.5;entryY=0;entryDx=0;entryDy=0;" parent="1" source="rX6alPP_R84iCfiomxFw-47" target="rX6alPP_R84iCfiomxFw-52" edge="1">
          <mxGeometry width="50" height="50" relative="1" as="geometry">
            <mxPoint x="845" y="1030" as="sourcePoint" />
            <mxPoint x="815" y="1170" as="targetPoint" />
            <Array as="points">
              <mxPoint x="873" y="1100" />
              <mxPoint x="873" y="1140" />
              <mxPoint x="930" y="1140" />
              <mxPoint x="965" y="1140" />
            </Array>
          </mxGeometry>
        </mxCell>
        <mxCell id="rX6alPP_R84iCfiomxFw-60" value="" style="endArrow=classic;html=1;rounded=0;exitX=0;exitY=0.5;exitDx=0;exitDy=0;" parent="1" source="rX6alPP_R84iCfiomxFw-49" edge="1">
          <mxGeometry width="50" height="50" relative="1" as="geometry">
            <mxPoint x="400" y="1030" as="sourcePoint" />
            <mxPoint x="470" y="1085" as="targetPoint" />
          </mxGeometry>
        </mxCell>
        <mxCell id="rX6alPP_R84iCfiomxFw-61" value="" style="endArrow=classic;html=1;rounded=0;exitX=0.5;exitY=1;exitDx=0;exitDy=0;entryX=0;entryY=0.5;entryDx=0;entryDy=0;" parent="1" source="rX6alPP_R84iCfiomxFw-51" target="rX6alPP_R84iCfiomxFw-47" edge="1">
          <mxGeometry width="50" height="50" relative="1" as="geometry">
            <mxPoint x="400" y="1030" as="sourcePoint" />
            <mxPoint x="450" y="980" as="targetPoint" />
            <Array as="points">
              <mxPoint x="805" y="1320" />
              <mxPoint x="470" y="1320" />
              <mxPoint x="470" y="985" />
            </Array>
          </mxGeometry>
        </mxCell>
        <mxCell id="rX6alPP_R84iCfiomxFw-62" value="" style="endArrow=classic;html=1;rounded=0;exitX=0.5;exitY=1;exitDx=0;exitDy=0;" parent="1" source="rX6alPP_R84iCfiomxFw-50" edge="1">
          <mxGeometry width="50" height="50" relative="1" as="geometry">
            <mxPoint x="400" y="1030" as="sourcePoint" />
            <mxPoint x="640" y="1320" as="targetPoint" />
          </mxGeometry>
        </mxCell>
        <mxCell id="rX6alPP_R84iCfiomxFw-63" value="" style="endArrow=classic;html=1;rounded=0;exitX=0.5;exitY=1;exitDx=0;exitDy=0;entryX=1;entryY=0.5;entryDx=0;entryDy=0;" parent="1" source="rX6alPP_R84iCfiomxFw-52" target="rX6alPP_R84iCfiomxFw-47" edge="1">
          <mxGeometry width="50" height="50" relative="1" as="geometry">
            <mxPoint x="400" y="1030" as="sourcePoint" />
            <mxPoint x="450" y="980" as="targetPoint" />
            <Array as="points">
              <mxPoint x="965" y="1320" />
              <mxPoint x="1130" y="1320" />
              <mxPoint x="1130" y="985" />
            </Array>
          </mxGeometry>
        </mxCell>
        <mxCell id="rX6alPP_R84iCfiomxFw-64" value="" style="endArrow=classic;html=1;rounded=0;exitX=1;exitY=0.5;exitDx=0;exitDy=0;" parent="1" source="rX6alPP_R84iCfiomxFw-53" edge="1">
          <mxGeometry width="50" height="50" relative="1" as="geometry">
            <mxPoint x="400" y="1030" as="sourcePoint" />
            <mxPoint x="1130" y="1085" as="targetPoint" />
          </mxGeometry>
        </mxCell>
      </root>
    </mxGraphModel>
  </diagram>
  <diagram id="IhBzcSBHuUPYpadoAGtF" name="Lv0-1">
    <mxGraphModel dx="1050" dy="541" grid="1" gridSize="10" guides="1" tooltips="1" connect="1" arrows="1" fold="1" page="1" pageScale="1" pageWidth="1390" pageHeight="980" math="0" shadow="0">
      <root>
        <mxCell id="0" />
        <mxCell id="1" parent="0" />
        <mxCell id="_Kh7zMm8I2z3apYk3yrE-1" value="" style="rounded=0;whiteSpace=wrap;html=1;fillColor=#EBF4FF;strokeColor=#FFFFFF;" vertex="1" parent="1">
          <mxGeometry x="225" y="20" width="940" height="370" as="geometry" />
        </mxCell>
        <mxCell id="_Kh7zMm8I2z3apYk3yrE-2" value="&lt;font color=&quot;#6666ff&quot;&gt;Homepage livello 0&lt;/font&gt;" style="text;html=1;strokeColor=none;fillColor=none;align=center;verticalAlign=middle;whiteSpace=wrap;rounded=0;fontColor=#9999FF;fontSize=14;fontStyle=1" vertex="1" parent="1">
          <mxGeometry x="630" y="30" width="160" height="40" as="geometry" />
        </mxCell>
        <mxCell id="_Kh7zMm8I2z3apYk3yrE-3" value="CATALOGO" style="ellipse;whiteSpace=wrap;html=1;fontSize=10;fillColor=#dae8fc;strokeColor=#6c8ebf;" vertex="1" parent="1">
          <mxGeometry x="400" y="100" width="90" height="50" as="geometry" />
        </mxCell>
        <mxCell id="_Kh7zMm8I2z3apYk3yrE-4" value="FAQ" style="ellipse;whiteSpace=wrap;html=1;fontSize=10;fillColor=#dae8fc;strokeColor=#6c8ebf;" vertex="1" parent="1">
          <mxGeometry x="625" y="100" width="80" height="50" as="geometry" />
        </mxCell>
        <mxCell id="_Kh7zMm8I2z3apYk3yrE-5" value="CONTATTACI" style="ellipse;whiteSpace=wrap;html=1;fontSize=10;fillColor=#dae8fc;strokeColor=#6c8ebf;" vertex="1" parent="1">
          <mxGeometry x="735" y="100" width="90" height="50" as="geometry" />
        </mxCell>
        <mxCell id="_Kh7zMm8I2z3apYk3yrE-6" style="edgeStyle=orthogonalEdgeStyle;rounded=0;orthogonalLoop=1;jettySize=auto;html=1;exitX=0.5;exitY=1;exitDx=0;exitDy=0;entryX=0.5;entryY=0;entryDx=0;entryDy=0;" edge="1" parent="1" source="_Kh7zMm8I2z3apYk3yrE-7" target="_Kh7zMm8I2z3apYk3yrE-14">
          <mxGeometry relative="1" as="geometry" />
        </mxCell>
        <mxCell id="_Kh7zMm8I2z3apYk3yrE-7" value="REGISTRATI" style="ellipse;whiteSpace=wrap;html=1;fontSize=10;fillColor=#dae8fc;strokeColor=#6c8ebf;" vertex="1" parent="1">
          <mxGeometry x="840" y="100" width="90" height="50" as="geometry" />
        </mxCell>
        <mxCell id="_Kh7zMm8I2z3apYk3yrE-8" style="edgeStyle=orthogonalEdgeStyle;rounded=0;orthogonalLoop=1;jettySize=auto;html=1;exitX=0.5;exitY=1;exitDx=0;exitDy=0;entryX=0.5;entryY=0;entryDx=0;entryDy=0;" edge="1" parent="1" source="_Kh7zMm8I2z3apYk3yrE-9" target="_Kh7zMm8I2z3apYk3yrE-17">
          <mxGeometry relative="1" as="geometry" />
        </mxCell>
        <mxCell id="_Kh7zMm8I2z3apYk3yrE-9" value="ACCEDI" style="ellipse;whiteSpace=wrap;html=1;fontSize=10;fillColor=#dae8fc;strokeColor=#6c8ebf;" vertex="1" parent="1">
          <mxGeometry x="1027.5" y="100" width="80" height="50" as="geometry" />
        </mxCell>
        <mxCell id="_Kh7zMm8I2z3apYk3yrE-10" style="edgeStyle=orthogonalEdgeStyle;rounded=0;orthogonalLoop=1;jettySize=auto;html=1;exitX=0.5;exitY=1;exitDx=0;exitDy=0;entryX=0.5;entryY=0;entryDx=0;entryDy=0;" edge="1" parent="1" source="_Kh7zMm8I2z3apYk3yrE-11" target="_Kh7zMm8I2z3apYk3yrE-13">
          <mxGeometry relative="1" as="geometry">
            <Array as="points">
              <mxPoint x="320" y="190" />
              <mxPoint x="425" y="190" />
            </Array>
          </mxGeometry>
        </mxCell>
        <mxCell id="_Kh7zMm8I2z3apYk3yrE-11" value="HOME" style="ellipse;whiteSpace=wrap;html=1;fontSize=10;fillColor=#dae8fc;strokeColor=#6c8ebf;" vertex="1" parent="1">
          <mxGeometry x="275" y="100" width="90" height="50" as="geometry" />
        </mxCell>
        <mxCell id="_Kh7zMm8I2z3apYk3yrE-12" style="edgeStyle=orthogonalEdgeStyle;rounded=0;orthogonalLoop=1;jettySize=auto;html=1;exitX=0.5;exitY=1;exitDx=0;exitDy=0;entryX=0;entryY=0.5;entryDx=0;entryDy=0;strokeColor=#000000;" edge="1" parent="1" source="_Kh7zMm8I2z3apYk3yrE-13" target="_Kh7zMm8I2z3apYk3yrE-14">
          <mxGeometry relative="1" as="geometry" />
        </mxCell>
        <mxCell id="_Kh7zMm8I2z3apYk3yrE-13" value="&lt;b&gt;Visualizzazione delle promozioni offerte dalle aziende tramite ricerca&lt;/b&gt;&lt;br&gt;&lt;br&gt;Per acquisire un coupon &lt;u&gt;registrati&lt;/u&gt;&amp;nbsp;" style="rounded=0;whiteSpace=wrap;html=1;fontSize=11;" vertex="1" parent="1">
          <mxGeometry x="320" y="245" width="210" height="80" as="geometry" />
        </mxCell>
        <mxCell id="_Kh7zMm8I2z3apYk3yrE-14" value="&lt;b&gt;Form registrazione&lt;/b&gt;&lt;br&gt;&lt;br&gt;&lt;u&gt;Registrati&lt;/u&gt;" style="rounded=0;whiteSpace=wrap;html=1;" vertex="1" parent="1">
          <mxGeometry x="825" y="230" width="120" height="60" as="geometry" />
        </mxCell>
        <mxCell id="_Kh7zMm8I2z3apYk3yrE-15" style="edgeStyle=orthogonalEdgeStyle;rounded=0;orthogonalLoop=1;jettySize=auto;html=1;exitX=0.25;exitY=1;exitDx=0;exitDy=0;entryX=1;entryY=0.5;entryDx=0;entryDy=0;strokeColor=#97D077;" edge="1" parent="1" source="_Kh7zMm8I2z3apYk3yrE-17" target="_Kh7zMm8I2z3apYk3yrE-14">
          <mxGeometry relative="1" as="geometry" />
        </mxCell>
        <mxCell id="_Kh7zMm8I2z3apYk3yrE-16" style="edgeStyle=orthogonalEdgeStyle;rounded=0;orthogonalLoop=1;jettySize=auto;html=1;exitX=0.75;exitY=1;exitDx=0;exitDy=0;strokeColor=#EA6B66;" edge="1" parent="1" source="_Kh7zMm8I2z3apYk3yrE-17" target="_Kh7zMm8I2z3apYk3yrE-18">
          <mxGeometry relative="1" as="geometry" />
        </mxCell>
        <mxCell id="_Kh7zMm8I2z3apYk3yrE-17" value="&lt;b&gt;Form accesso&lt;/b&gt;&lt;br&gt;&lt;br&gt;&lt;u&gt;Accedi&lt;br&gt;&lt;/u&gt;&lt;br&gt;Se non sei registrato &lt;u&gt;crea il tuo account&lt;/u&gt;" style="rounded=0;whiteSpace=wrap;html=1;" vertex="1" parent="1">
          <mxGeometry x="1000" y="230" width="135" height="110" as="geometry" />
        </mxCell>
        <mxCell id="_Kh7zMm8I2z3apYk3yrE-18" value="" style="rounded=0;whiteSpace=wrap;html=1;fillColor=#EBF4FF;strokeColor=#FFFFFF;" vertex="1" parent="1">
          <mxGeometry x="250" y="500" width="920" height="430" as="geometry" />
        </mxCell>
        <mxCell id="_Kh7zMm8I2z3apYk3yrE-19" value="&lt;font color=&quot;#6666ff&quot;&gt;Homepage livello 1&lt;/font&gt;" style="text;html=1;strokeColor=none;fillColor=none;align=center;verticalAlign=middle;whiteSpace=wrap;rounded=0;fontColor=#9999FF;fontSize=14;fontStyle=1" vertex="1" parent="1">
          <mxGeometry x="630" y="520" width="160" height="40" as="geometry" />
        </mxCell>
        <mxCell id="_Kh7zMm8I2z3apYk3yrE-20" style="edgeStyle=orthogonalEdgeStyle;rounded=0;orthogonalLoop=1;jettySize=auto;html=1;exitX=0.5;exitY=1;exitDx=0;exitDy=0;entryX=0.5;entryY=0;entryDx=0;entryDy=0;" edge="1" parent="1" source="_Kh7zMm8I2z3apYk3yrE-21" target="_Kh7zMm8I2z3apYk3yrE-34">
          <mxGeometry relative="1" as="geometry" />
        </mxCell>
        <mxCell id="_Kh7zMm8I2z3apYk3yrE-21" value="CATALOGO" style="ellipse;whiteSpace=wrap;html=1;fontSize=10;fillColor=#dae8fc;strokeColor=#6c8ebf;" vertex="1" parent="1">
          <mxGeometry x="455" y="580" width="90" height="50" as="geometry" />
        </mxCell>
        <mxCell id="_Kh7zMm8I2z3apYk3yrE-22" value="FAQ" style="ellipse;whiteSpace=wrap;html=1;fontSize=10;fillColor=#dae8fc;strokeColor=#6c8ebf;" vertex="1" parent="1">
          <mxGeometry x="620" y="580" width="80" height="50" as="geometry" />
        </mxCell>
        <mxCell id="_Kh7zMm8I2z3apYk3yrE-23" value="CONTATTACI" style="ellipse;whiteSpace=wrap;html=1;fontSize=10;fillColor=#dae8fc;strokeColor=#6c8ebf;" vertex="1" parent="1">
          <mxGeometry x="730" y="580" width="90" height="50" as="geometry" />
        </mxCell>
        <mxCell id="_Kh7zMm8I2z3apYk3yrE-24" value="LOGOUT" style="ellipse;whiteSpace=wrap;html=1;fontSize=10;fillColor=#dae8fc;strokeColor=#6c8ebf;" vertex="1" parent="1">
          <mxGeometry x="860" y="580" width="90" height="50" as="geometry" />
        </mxCell>
        <mxCell id="_Kh7zMm8I2z3apYk3yrE-25" style="edgeStyle=orthogonalEdgeStyle;rounded=0;orthogonalLoop=1;jettySize=auto;html=1;exitX=0.5;exitY=1;exitDx=0;exitDy=0;entryX=0.5;entryY=0;entryDx=0;entryDy=0;" edge="1" parent="1" source="_Kh7zMm8I2z3apYk3yrE-26" target="_Kh7zMm8I2z3apYk3yrE-30">
          <mxGeometry relative="1" as="geometry" />
        </mxCell>
        <mxCell id="_Kh7zMm8I2z3apYk3yrE-26" value="DATI UTENTE" style="ellipse;whiteSpace=wrap;html=1;fontSize=10;fillColor=#dae8fc;strokeColor=#6c8ebf;" vertex="1" parent="1">
          <mxGeometry x="1010" y="580" width="90" height="50" as="geometry" />
        </mxCell>
        <mxCell id="_Kh7zMm8I2z3apYk3yrE-27" style="edgeStyle=orthogonalEdgeStyle;rounded=0;orthogonalLoop=1;jettySize=auto;html=1;exitX=0.5;exitY=1;exitDx=0;exitDy=0;" edge="1" parent="1" source="_Kh7zMm8I2z3apYk3yrE-28" target="_Kh7zMm8I2z3apYk3yrE-34">
          <mxGeometry relative="1" as="geometry" />
        </mxCell>
        <mxCell id="_Kh7zMm8I2z3apYk3yrE-28" value="HOME" style="ellipse;whiteSpace=wrap;html=1;fontSize=10;fillColor=#dae8fc;strokeColor=#6c8ebf;" vertex="1" parent="1">
          <mxGeometry x="310" y="580" width="90" height="50" as="geometry" />
        </mxCell>
        <mxCell id="_Kh7zMm8I2z3apYk3yrE-29" style="edgeStyle=orthogonalEdgeStyle;rounded=0;orthogonalLoop=1;jettySize=auto;html=1;exitX=0.5;exitY=1;exitDx=0;exitDy=0;entryX=0.5;entryY=0;entryDx=0;entryDy=0;" edge="1" parent="1" source="_Kh7zMm8I2z3apYk3yrE-30" target="_Kh7zMm8I2z3apYk3yrE-32">
          <mxGeometry relative="1" as="geometry" />
        </mxCell>
        <mxCell id="_Kh7zMm8I2z3apYk3yrE-30" value="&lt;b&gt;Visualizza i tuoi dati&lt;/b&gt;&lt;br&gt;&lt;br&gt;&lt;u&gt;Modifica&lt;/u&gt;" style="rounded=0;whiteSpace=wrap;html=1;" vertex="1" parent="1">
          <mxGeometry x="992.5" y="690" width="125" height="60" as="geometry" />
        </mxCell>
        <mxCell id="_Kh7zMm8I2z3apYk3yrE-31" style="edgeStyle=orthogonalEdgeStyle;rounded=0;orthogonalLoop=1;jettySize=auto;html=1;exitX=0.5;exitY=1;exitDx=0;exitDy=0;entryX=0;entryY=0.5;entryDx=0;entryDy=0;strokeColor=#97D077;" edge="1" parent="1" source="_Kh7zMm8I2z3apYk3yrE-32" target="_Kh7zMm8I2z3apYk3yrE-30">
          <mxGeometry relative="1" as="geometry">
            <Array as="points">
              <mxPoint x="1055" y="900" />
              <mxPoint x="960" y="900" />
              <mxPoint x="960" y="720" />
            </Array>
          </mxGeometry>
        </mxCell>
        <mxCell id="_Kh7zMm8I2z3apYk3yrE-32" value="&lt;b&gt;Form modifica&lt;/b&gt;&lt;br&gt;&lt;br&gt;&lt;u&gt;Conferma&lt;br&gt;&lt;br&gt;Indietro&lt;/u&gt;" style="rounded=0;whiteSpace=wrap;html=1;" vertex="1" parent="1">
          <mxGeometry x="990" y="790" width="130" height="90" as="geometry" />
        </mxCell>
        <mxCell id="_Kh7zMm8I2z3apYk3yrE-33" style="edgeStyle=orthogonalEdgeStyle;rounded=0;orthogonalLoop=1;jettySize=auto;html=1;entryX=0.5;entryY=0;entryDx=0;entryDy=0;" edge="1" parent="1" source="_Kh7zMm8I2z3apYk3yrE-34" target="_Kh7zMm8I2z3apYk3yrE-36">
          <mxGeometry relative="1" as="geometry" />
        </mxCell>
        <mxCell id="_Kh7zMm8I2z3apYk3yrE-34" value="&lt;b&gt;Visualizzazione delle promozioni offerte dalle aziende tramite ricerca&lt;/b&gt;&lt;br&gt;&lt;br&gt;&lt;u&gt;Scarica coupon&lt;/u&gt;" style="rounded=0;whiteSpace=wrap;html=1;fontSize=11;" vertex="1" parent="1">
          <mxGeometry x="320" y="700" width="210" height="70" as="geometry" />
        </mxCell>
        <mxCell id="_Kh7zMm8I2z3apYk3yrE-35" style="edgeStyle=orthogonalEdgeStyle;rounded=0;orthogonalLoop=1;jettySize=auto;html=1;exitX=1;exitY=0.5;exitDx=0;exitDy=0;entryX=1;entryY=0.5;entryDx=0;entryDy=0;" edge="1" parent="1" source="_Kh7zMm8I2z3apYk3yrE-36" target="_Kh7zMm8I2z3apYk3yrE-21">
          <mxGeometry relative="1" as="geometry">
            <Array as="points">
              <mxPoint x="580" y="845" />
              <mxPoint x="580" y="605" />
            </Array>
          </mxGeometry>
        </mxCell>
        <mxCell id="_Kh7zMm8I2z3apYk3yrE-36" value="&lt;b&gt;Visualizzazione coupon&lt;/b&gt;&lt;br&gt;&lt;br&gt;&lt;u&gt;Indietro&lt;/u&gt;" style="rounded=0;whiteSpace=wrap;html=1;fontSize=11;" vertex="1" parent="1">
          <mxGeometry x="347.5" y="810" width="155" height="70" as="geometry" />
        </mxCell>
        <mxCell id="_Kh7zMm8I2z3apYk3yrE-37" value="AZIENDE" style="ellipse;whiteSpace=wrap;html=1;fontSize=10;fillColor=#dae8fc;strokeColor=#6c8ebf;" vertex="1" parent="1">
          <mxGeometry x="510" y="100" width="90" height="50" as="geometry" />
        </mxCell>
      </root>
    </mxGraphModel>
  </diagram>
  <diagram id="_CZQYzVmhGMX9hNdbz7M" name="LinkCompleto">
    <mxGraphModel dx="1400" dy="721" grid="1" gridSize="10" guides="1" tooltips="1" connect="1" arrows="1" fold="1" page="1" pageScale="1" pageWidth="1390" pageHeight="980" math="0" shadow="0">
      <root>
        <mxCell id="0" />
        <mxCell id="1" parent="0" />
      </root>
    </mxGraphModel>
  </diagram>
</mxfile>
